<?xml version="1.0" encoding="UTF-8"?>
<!DOCTYPE svg PUBLIC "-//W3C//DTD SVG 1.1//EN" "http://www.w3.org/Graphics/SVG/1.1/DTD/svg11.dtd">
<!-- Creator: CorelDRAW 2019 (64-Bit) -->
<svg xmlns="http://www.w3.org/2000/svg" xml:space="preserve" width="16.0762mm" height="16.0762mm" version="1.1" style="shape-rendering:geometricPrecision; text-rendering:geometricPrecision; image-rendering:optimizeQuality; fill-rule:evenodd; clip-rule:evenodd"
viewBox="0 0 68.81 68.81"
 xmlns:xlink="http://www.w3.org/1999/xlink">
 <defs>
  <style type="text/css">
   <![CDATA[
    .fil0 {fill:#707070}
   ]]>
  </style>
 </defs>
 <g id="Слой_x0020_1">
  <metadata id="CorelCorpID_0Corel-Layer"/>
  <path class="fil0" d="M30.06 42.9l-7.56 0 0 -15.85 6.86 0c1.4,0 2.51,0.35 3.33,1.04 0.82,0.68 1.22,1.62 1.22,2.81 0,0.82 -0.19,1.52 -0.57,2.11 -0.36,0.59 -0.87,1 -1.52,1.25 1.06,0.17 1.9,0.63 2.51,1.38 0.62,0.76 0.93,1.71 0.93,2.85 0,1.34 -0.47,2.42 -1.4,3.22 -0.94,0.8 -2.2,1.2 -3.81,1.2zm4.35 -42.9c19,0 34.4,15.4 34.4,34.4 0,19 -15.4,34.4 -34.4,34.4 -19,0 -34.4,-15.4 -34.4,-34.4 0,-19 15.4,-34.4 34.4,-34.4zm0 2.64c17.54,0 31.76,14.22 31.76,31.76 0,17.54 -14.22,31.76 -31.76,31.76 -17.54,0 -31.76,-14.22 -31.76,-31.76 0,-17.54 14.22,-31.76 31.76,-31.76zm-10.24 32.58l0 6.16 5.59 0c1.18,0 2.09,-0.27 2.74,-0.82 0.65,-0.54 0.97,-1.31 0.97,-2.29 0,-0.97 -0.32,-1.71 -0.97,-2.24 -0.65,-0.54 -1.56,-0.82 -2.74,-0.82l-5.59 0zm0 -6.66l0 5.19 4.91 0c1.01,0 1.79,-0.22 2.33,-0.66 0.56,-0.44 0.84,-1.07 0.84,-1.9 0,-0.85 -0.28,-1.49 -0.84,-1.95 -0.54,-0.45 -1.32,-0.68 -2.33,-0.68l-4.91 0zm19.67 14.61c-1.71,0 -3.14,-0.54 -4.3,-1.61 -1.15,-1.06 -1.72,-2.43 -1.72,-4.12 0,-1.63 0.51,-3 1.54,-4.1 1.04,-1.1 2.38,-1.65 4.01,-1.65 0.88,0 1.65,0.18 2.33,0.54 0.68,0.35 1.22,0.81 1.61,1.38 0.39,0.57 0.69,1.19 0.88,1.83 0.2,0.63 0.29,1.28 0.29,1.92l0 0.45 -8.99 0c0.09,1.18 0.56,2.12 1.4,2.83 0.86,0.69 1.95,1.04 3.26,1.04 1.27,0 2.44,-0.34 3.51,-1.02l0 1.45c-0.89,0.69 -2.17,1.04 -3.83,1.04zm-4.33 -6.68l7.32 0c-0.05,-0.85 -0.36,-1.61 -0.95,-2.29 -0.56,-0.69 -1.42,-1.04 -2.58,-1.04 -1.09,0 -1.98,0.33 -2.67,1 -0.68,0.68 -1.05,1.46 -1.11,2.33z"/>
 </g>
</svg>
