<?xml version="1.0" encoding="UTF-8"?>
<!DOCTYPE svg PUBLIC "-//W3C//DTD SVG 1.1//EN" "http://www.w3.org/Graphics/SVG/1.1/DTD/svg11.dtd">
<!-- Creator: CorelDRAW 2019 (64-Bit) -->
<svg xmlns="http://www.w3.org/2000/svg" xml:space="preserve" width="16.0762mm" height="16.0762mm" version="1.1" style="shape-rendering:geometricPrecision; text-rendering:geometricPrecision; image-rendering:optimizeQuality; fill-rule:evenodd; clip-rule:evenodd"
viewBox="0 0 63.37 63.37"
 xmlns:xlink="http://www.w3.org/1999/xlink">
 <defs>
  <style type="text/css">
   <![CDATA[
    .fil0 {fill:#707070}
   ]]>
  </style>
 </defs>
 <g id="Слой_x0020_1">
  <metadata id="CorelCorpID_0Corel-Layer"/>
  <path class="fil0" d="M21.65 38.86l-1.54 0 0 -14.6 9.95 0 0 1.4 -8.41 0 0 4.86 6.82 0 0 1.4 -6.82 0 0 6.95zm10.03 -38.86c17.5,0 31.68,14.19 31.68,31.68 0,17.5 -14.19,31.68 -31.68,31.68 -17.5,0 -31.68,-14.19 -31.68,-31.68 0,-17.5 14.19,-31.68 31.68,-31.68zm0 2.43c16.16,0 29.25,13.1 29.25,29.25 0,16.16 -13.1,29.25 -29.25,29.25 -16.16,0 -29.25,-13.1 -29.25,-29.25 0,-16.16 13.1,-29.25 29.25,-29.25zm1.11 36.43l0 -14.6 1.5 0 0 6.13c0.95,-1.24 2.25,-1.86 3.9,-1.86 1.49,0 2.7,0.51 3.65,1.54 0.95,1.03 1.42,2.28 1.42,3.75 0,1.46 -0.47,2.7 -1.42,3.73 -0.95,1.03 -2.16,1.54 -3.65,1.54 -1.65,0 -2.95,-0.62 -3.9,-1.86l0 1.61 -1.5 0zm1.5 -6.7l0 3.32c0.31,0.67 0.79,1.22 1.44,1.65 0.65,0.42 1.36,0.63 2.11,0.63 1.13,0 2.05,-0.38 2.77,-1.13 0.74,-0.76 1.11,-1.7 1.11,-2.8 0,-1.1 -0.37,-2.03 -1.11,-2.8 -0.72,-0.76 -1.65,-1.15 -2.77,-1.15 -0.76,0 -1.47,0.22 -2.13,0.65 -0.65,0.42 -1.13,0.96 -1.42,1.63z"/>
 </g>
</svg>
