<?xml version="1.0" encoding="UTF-8"?>
<!DOCTYPE svg PUBLIC "-//W3C//DTD SVG 1.1//EN" "http://www.w3.org/Graphics/SVG/1.1/DTD/svg11.dtd">
<!-- Creator: CorelDRAW 2019 (64-Bit) -->
<svg xmlns="http://www.w3.org/2000/svg" xml:space="preserve" width="16.0762mm" height="16.0762mm" version="1.1" style="shape-rendering:geometricPrecision; text-rendering:geometricPrecision; image-rendering:optimizeQuality; fill-rule:evenodd; clip-rule:evenodd"
viewBox="0 0 61.33 61.33"
 xmlns:xlink="http://www.w3.org/1999/xlink">
 <defs>
  <style type="text/css">
   <![CDATA[
    .fil0 {fill:#707070}
   ]]>
  </style>
 </defs>
 <g id="Слой_x0020_1">
  <metadata id="CorelCorpID_0Corel-Layer"/>
  <path class="fil0" d="M24.98 37.73l-1.49 0 0 -14.13 1.49 0 0 14.13zm5.69 -37.73c16.94,0 30.67,13.73 30.67,30.67 0,16.94 -13.73,30.67 -30.67,30.67 -16.94,0 -30.67,-13.73 -30.67,-30.67 0,-16.94 13.73,-30.67 30.67,-30.67zm0 2.36c15.64,0 28.31,12.67 28.31,28.31 0,15.64 -12.67,28.31 -28.31,28.31 -15.64,0 -28.31,-12.67 -28.31,-28.31 0,-15.64 12.67,-28.31 28.31,-28.31zm-0.43 28.79l0 6.58 -1.45 0 0 -9.75 1.45 0 0 1.49c1.04,-1.16 2.34,-1.74 3.9,-1.74 1.2,0 2.11,0.36 2.75,1.07 0.65,0.7 0.97,1.7 0.97,2.99l0 5.93 -1.45 0 0 -5.61c0,-2.01 -0.92,-3.01 -2.77,-3.01 -0.67,0 -1.33,0.21 -1.96,0.63 -0.65,0.42 -1.12,0.89 -1.43,1.41z"/>
 </g>
</svg>
