<?xml version="1.0" encoding="UTF-8"?>
<!DOCTYPE svg PUBLIC "-//W3C//DTD SVG 1.1//EN" "http://www.w3.org/Graphics/SVG/1.1/DTD/svg11.dtd">
<!-- Creator: CorelDRAW 2019 (64-Bit) -->
<svg xmlns="http://www.w3.org/2000/svg" xml:space="preserve" width="16.0762mm" height="16.0762mm" version="1.1" style="shape-rendering:geometricPrecision; text-rendering:geometricPrecision; image-rendering:optimizeQuality; fill-rule:evenodd; clip-rule:evenodd"
viewBox="0 0 58.62 58.62"
 xmlns:xlink="http://www.w3.org/1999/xlink">
 <defs>
  <style type="text/css">
   <![CDATA[
    .fil0 {fill:#707070}
   ]]>
  </style>
 </defs>
 <g id="Слой_x0020_1">
  <metadata id="CorelCorpID_0Corel-Layer"/>
  <path class="fil0" d="M25.74 36.06l-1.43 0 0 -13.51 5.67 0c1.34,0 2.39,0.34 3.16,1.02 0.77,0.68 1.16,1.59 1.16,2.72 0,1.16 -0.39,2.08 -1.16,2.78 -0.77,0.68 -1.83,1.02 -3.16,1.02l-4.24 0 0 5.96zm3.57 -36.06c16.19,0 29.31,13.12 29.31,29.31 0,16.19 -13.12,29.31 -29.31,29.31 -16.19,0 -29.31,-13.12 -29.31,-29.31 0,-16.19 13.12,-29.31 29.31,-29.31zm0 2.25c14.94,0 27.06,12.11 27.06,27.06 0,14.94 -12.11,27.06 -27.06,27.06 -14.94,0 -27.06,-12.11 -27.06,-27.06 0,-14.94 12.11,-27.06 27.06,-27.06zm-3.57 21.6l0 4.96 4.15 0c0.95,0 1.69,-0.21 2.22,-0.64 0.53,-0.44 0.79,-1.05 0.79,-1.83 0,-0.8 -0.26,-1.41 -0.79,-1.83 -0.51,-0.44 -1.25,-0.66 -2.22,-0.66l-4.15 0z"/>
 </g>
</svg>
