<?xml version="1.0" encoding="UTF-8"?>
<!DOCTYPE svg PUBLIC "-//W3C//DTD SVG 1.1//EN" "http://www.w3.org/Graphics/SVG/1.1/DTD/svg11.dtd">
<!-- Creator: CorelDRAW 2019 (64-Bit) -->
<svg xmlns="http://www.w3.org/2000/svg" xml:space="preserve" width="16.0762mm" height="16.0762mm" version="1.1" style="shape-rendering:geometricPrecision; text-rendering:geometricPrecision; image-rendering:optimizeQuality; fill-rule:evenodd; clip-rule:evenodd"
viewBox="0 0 56.4 56.4"
 xmlns:xlink="http://www.w3.org/1999/xlink">
 <defs>
  <style type="text/css">
   <![CDATA[
    .fil0 {fill:#707070}
   ]]>
  </style>
 </defs>
 <g id="Слой_x0020_1">
  <metadata id="CorelCorpID_0Corel-Layer"/>
  <path class="fil0" d="M24.58 32.81l-1.37 0 0 -11.75 -4.47 0 0 -1.24 10.38 0 0 1.24 -4.53 0 0 11.75zm3.62 -32.81c15.58,0 28.2,12.63 28.2,28.2 0,15.58 -12.63,28.2 -28.2,28.2 -15.58,0 -28.2,-12.63 -28.2,-28.2 0,-15.58 12.63,-28.2 28.2,-28.2zm0 2.17c14.38,0 26.03,11.66 26.03,26.03 0,14.38 -11.66,26.03 -26.03,26.03 -14.38,0 -26.03,-11.66 -26.03,-26.03 0,-14.38 11.66,-26.03 26.03,-26.03zm8.13 30.06l0 -0.95c-0.8,1.06 -1.96,1.6 -3.47,1.6 -1.32,0 -2.41,-0.45 -3.25,-1.34 -0.84,-0.92 -1.26,-2.01 -1.26,-3.29 0,-1.27 0.42,-2.37 1.26,-3.29 0.83,-0.9 1.91,-1.36 3.25,-1.36 1.53,0 2.69,0.53 3.47,1.6l0 -1.37 1.34 0 0 8.39c0,1.41 -0.46,2.49 -1.39,3.23 -0.9,0.76 -2.06,1.13 -3.47,1.13 -1.36,0 -2.52,-0.27 -3.47,-0.82l0 -1.3c1.01,0.61 2.13,0.91 3.34,0.91 1.11,0 2,-0.27 2.65,-0.8 0.67,-0.53 1,-1.32 1,-2.36zm0 -2.52l0 -2.91c-0.25,-0.58 -0.66,-1.05 -1.24,-1.41 -0.58,-0.37 -1.22,-0.56 -1.91,-0.56 -0.99,0 -1.81,0.33 -2.47,0.98 -0.66,0.66 -0.98,1.47 -0.98,2.45 0,0.98 0.33,1.79 0.98,2.45 0.64,0.64 1.47,0.97 2.47,0.97 0.69,0 1.33,-0.18 1.91,-0.54 0.58,-0.37 1,-0.85 1.24,-1.43z"/>
 </g>
</svg>
