<svg width="61" height="76" viewBox="0 0 61 76" fill="none" xmlns="http://www.w3.org/2000/svg">
<path d="M21.46 43.9879H19.98V29.9879H29.52V31.3279H21.46V35.9879H28V37.3279H21.46V43.9879ZM32.1414 43.9879V29.9879H33.5814V35.8679C34.4881 34.6812 35.7347 34.0879 37.3214 34.0879C38.7481 34.0879 39.9147 34.5812 40.8214 35.5679C41.7281 36.5546 42.1814 37.7546 42.1814 39.1679C42.1814 40.5679 41.7281 41.7612 40.8214 42.7479C39.9147 43.7346 38.7481 44.2279 37.3214 44.2279C35.7347 44.2279 34.4881 43.6346 33.5814 42.4479V43.9879H32.1414ZM33.5814 37.5679V40.7479C33.8747 41.3879 34.3347 41.9146 34.9614 42.3279C35.5881 42.7279 36.2614 42.9279 36.9814 42.9279C38.0614 42.9279 38.9481 42.5679 39.6414 41.8479C40.3481 41.1146 40.7014 40.2212 40.7014 39.1679C40.7014 38.1146 40.3481 37.2212 39.6414 36.4879C38.9481 35.7546 38.0614 35.3879 36.9814 35.3879C36.2481 35.3879 35.5681 35.5946 34.9414 36.0079C34.3147 36.4079 33.8614 36.9279 33.5814 37.5679Z" fill="#F5C13F"/>
<circle cx="30.5" cy="36.4879" r="29.5" stroke="#F5C13F" stroke-width="2"/>
</svg>
