<svg width="61" height="76" viewBox="0 0 61 76" fill="none" xmlns="http://www.w3.org/2000/svg">
<path d="M27.46 43.9879H25.98V29.9879H31.86C33.2467 29.9879 34.34 30.3412 35.14 31.0479C35.94 31.7546 36.34 32.6946 36.34 33.8679C36.34 35.0679 35.94 36.0279 35.14 36.7479C34.34 37.4546 33.2467 37.8079 31.86 37.8079H27.46V43.9879ZM27.46 31.3279V36.4679H31.76C32.7467 36.4679 33.5133 36.2479 34.06 35.8079C34.6067 35.3546 34.88 34.7212 34.88 33.9079C34.88 33.0812 34.6067 32.4479 34.06 32.0079C33.5267 31.5546 32.76 31.3279 31.76 31.3279H27.46Z" fill="#F5C13F"/>
<circle cx="30.5" cy="36.4879" r="29.5" stroke="#F5C13F" stroke-width="2"/>
</svg>
