<svg width="61" height="76" viewBox="0 0 61 76" fill="none" xmlns="http://www.w3.org/2000/svg">
<path d="M26.02 43.9879H24.54V31.3279H19.72V29.9879H30.9V31.3279H26.02V43.9879ZM38.6781 43.3679V42.3479C37.8115 43.4946 36.5648 44.0679 34.9381 44.0679C33.5115 44.0679 32.3448 43.5879 31.4381 42.6279C30.5315 41.6412 30.0781 40.4612 30.0781 39.0879C30.0781 37.7146 30.5315 36.5346 31.4381 35.5479C32.3315 34.5746 33.4981 34.0879 34.9381 34.0879C36.5915 34.0879 37.8381 34.6612 38.6781 35.8079V34.3279H40.1181V43.3679C40.1181 44.8879 39.6181 46.0479 38.6181 46.8479C37.6448 47.6612 36.3981 48.0679 34.8781 48.0679C33.4115 48.0679 32.1648 47.7746 31.1381 47.1879V45.7879C32.2315 46.4412 33.4315 46.7679 34.7381 46.7679C35.9381 46.7679 36.8915 46.4812 37.5981 45.9079C38.3181 45.3346 38.6781 44.4879 38.6781 43.3679ZM38.6781 40.6479V37.5079C38.4115 36.8812 37.9648 36.3746 37.3381 35.9879C36.7115 35.5879 36.0248 35.3879 35.2781 35.3879C34.2115 35.3879 33.3248 35.7412 32.6181 36.4479C31.9115 37.1546 31.5581 38.0346 31.5581 39.0879C31.5581 40.1412 31.9115 41.0212 32.6181 41.7279C33.3115 42.4212 34.1981 42.7679 35.2781 42.7679C36.0248 42.7679 36.7115 42.5746 37.3381 42.1879C37.9648 41.7879 38.4115 41.2746 38.6781 40.6479Z" fill="#F5C13F"/>
<circle cx="30.5" cy="36.4879" r="29.5" stroke="#F5C13F" stroke-width="2"/>
</svg>
