<svg width="61" height="76" viewBox="0 0 61 76" fill="none" xmlns="http://www.w3.org/2000/svg">
<path d="M26.66 43.9879H19.98V29.9879H26.04C27.28 29.9879 28.26 30.2946 28.98 30.9079C29.7 31.5079 30.06 32.3346 30.06 33.3879C30.06 34.1079 29.8933 34.7279 29.56 35.2479C29.24 35.7679 28.7933 36.1346 28.22 36.3479C29.1533 36.4946 29.8933 36.9012 30.44 37.5679C30.9867 38.2346 31.26 39.0746 31.26 40.0879C31.26 41.2746 30.8467 42.2212 30.02 42.9279C29.1933 43.6346 28.0733 43.9879 26.66 43.9879ZM21.46 37.2079V42.6479H26.4C27.44 42.6479 28.2467 42.4079 28.82 41.9279C29.3933 41.4479 29.68 40.7746 29.68 39.9079C29.68 39.0546 29.3933 38.3946 28.82 37.9279C28.2467 37.4479 27.44 37.2079 26.4 37.2079H21.46ZM21.46 31.3279V35.9079H25.8C26.6933 35.9079 27.38 35.7146 27.86 35.3279C28.3533 34.9412 28.6 34.3812 28.6 33.6479C28.6 32.9012 28.3533 32.3279 27.86 31.9279C27.38 31.5279 26.6933 31.3279 25.8 31.3279H21.46ZM38.8317 44.2279C37.3251 44.2279 36.0584 43.7546 35.0317 42.8079C34.0184 41.8746 33.5117 40.6612 33.5117 39.1679C33.5117 37.7279 33.9651 36.5212 34.8717 35.5479C35.7917 34.5746 36.9717 34.0879 38.4117 34.0879C39.1851 34.0879 39.8717 34.2479 40.4717 34.5679C41.0717 34.8746 41.5451 35.2812 41.8917 35.7879C42.2384 36.2946 42.4984 36.8346 42.6717 37.4079C42.8451 37.9679 42.9317 38.5346 42.9317 39.1079V39.5079H34.9917C35.0717 40.5479 35.4851 41.3812 36.2317 42.0079C36.9917 42.6212 37.9517 42.9279 39.1117 42.9279C40.2317 42.9279 41.2651 42.6279 42.2117 42.0279V43.3079C41.4251 43.9212 40.2984 44.2279 38.8317 44.2279ZM35.0117 38.3279H41.4717C41.4317 37.5812 41.1517 36.9079 40.6317 36.3079C40.1384 35.6946 39.3784 35.3879 38.3517 35.3879C37.3917 35.3879 36.6051 35.6812 35.9917 36.2679C35.3917 36.8679 35.0651 37.5546 35.0117 38.3279Z" fill="#F5C13F"/>
<circle cx="30.5" cy="36.4879" r="29.5" stroke="#F5C13F" stroke-width="2"/>
</svg>
